<?xml version="1.0" encoding="iso-8859-1"?>
<!-- Generator: Adobe Illustrator 19.0.0, SVG Export Plug-In . SVG Version: 6.00 Build 0)  -->
<svg version="1.1" id="Capa_1" xmlns="http://www.w3.org/2000/svg" xmlns:xlink="http://www.w3.org/1999/xlink" x="0px" y="0px"
	 viewBox="0 0 448.023 448.023" style="enable-background:new 0 0 448.023 448.023;" xml:space="preserve">
<g>
	<g>
		<path d="M358.956,1.591c-5.6-2.688-12.128-1.92-16.928,1.92L186.38,128.023h-74.368c-17.664,0-32,14.368-32,32v128
			c0,17.632,14.336,32,32,32h74.368l155.616,124.512c2.912,2.304,6.464,3.488,10.016,3.488c2.336,0,4.704-0.512,6.944-1.568
			c5.536-2.688,9.056-8.288,9.056-14.432v-416C368.012,9.879,364.492,4.279,358.956,1.591z M176.012,288.023h-64v-128h64V288.023z
			 M336.012,398.711l-128-102.4V151.735l128-102.4V398.711z"/>
	</g>
</g>
<g>
</g>
<g>
</g>
<g>
</g>
<g>
</g>
<g>
</g>
<g>
</g>
<g>
</g>
<g>
</g>
<g>
</g>
<g>
</g>
<g>
</g>
<g>
</g>
<g>
</g>
<g>
</g>
<g>
</g>
</svg>
